<svg width="1920" height="1000" viewBox="0 0 1920 1000" fill="none" xmlns="http://www.w3.org/2000/svg">
<rect width="1920" height="1000" fill="url(#paint0_linear)"/>
<path opacity="0.1" d="M376.5 -139.5H-57V1035.5L1906 1099.5C1973.17 1029.33 2092.8 871.3 2034 800.5C1960.5 712 1937.5 869.5 1669 814.5C1400.5 759.5 1516 481 1296.5 371C1077 261 722 471 548 257C408.8 85.8 490.5 -98 376.5 -139.5Z" fill="url(#paint1_linear)"/>
<path opacity="0.03" d="M234.5 424.5C167 303 -53.6667 101.333 -60.5 10V1122.5H1767L2076.5 1003C2047.17 969 1973.1 891.8 1911.5 855C1834.5 809 1520.5 823.5 1351.5 806C1182.5 788.5 1121 471 508.5 717.5C136.681 867.138 315.723 570.702 234.5 424.5Z" fill="url(#paint2_linear)"/>
<path opacity="0.07" d="M-23 56.2802C-32.8761 43.6264 -38.9247 30.3725 -40 16L-23 -225V56.2802C29.8842 124.038 192.518 174.587 289 287.5C397.649 414.652 190.08 690.627 580.5 600C1175 462 1220.5 888.5 1389.5 906C1558.5 923.5 1892 860 1969 906C2030.6 942.8 2084.67 903 2114 937L1804.5 1056.5H-23V56.2802Z" fill="url(#paint3_linear)"/>
<path opacity="0.12" d="M-20.2061 -242.214C-31.6229 -259.46 -38.6611 -277.709 -40 -297.87L-20.2061 -614V-242.214C36.2225 -156.969 199.617 -96.1951 310.5 50C437.005 216.791 310.5 401.5 703 450.5C1367.83 533.498 1427.66 846.627 1624.43 869.583C1821.21 892.538 2209.52 809.242 2299.17 869.583C2370.89 917.855 2433.85 865.647 2468 910.247L2107.64 1067H-20.2061V-242.214Z" fill="url(#paint4_linear)"/>
<defs>
<linearGradient id="paint0_linear" x1="449" y1="-115.5" x2="1831.5" y2="1022" gradientUnits="userSpaceOnUse">
<stop stop-color="#9D77E7"/>
<stop offset="1" stop-color="#6847A9"/>
</linearGradient>
<linearGradient id="paint1_linear" x1="37.5" y1="3.00001" x2="1852" y2="967" gradientUnits="userSpaceOnUse">
<stop stop-color="white"/>
<stop offset="1" stop-color="white" stop-opacity="0"/>
</linearGradient>
<linearGradient id="paint2_linear" x1="-289.5" y1="-85" x2="1907.5" y2="968" gradientUnits="userSpaceOnUse">
<stop stop-color="white"/>
<stop offset="1" stop-color="white" stop-opacity="0"/>
</linearGradient>
<linearGradient id="paint3_linear" x1="-252" y1="-151" x2="1945" y2="902" gradientUnits="userSpaceOnUse">
<stop stop-color="white"/>
<stop offset="1" stop-color="white" stop-opacity="0"/>
</linearGradient>
<linearGradient id="paint4_linear" x1="-286.841" y1="-516.931" x2="2376.77" y2="616.256" gradientUnits="userSpaceOnUse">
<stop stop-color="white"/>
<stop offset="1" stop-color="white" stop-opacity="0"/>
</linearGradient>
</defs>
</svg>
